#!OML:ASF X:\für Bonn\!DataBase\2005_08_12_Daniel\c3d\Daniel.ASF
:FULLY-SPECIFIED
:DEGREES
223
root 14.7113 16.7279 1.66844 69.4333 -96.2707 -72.1152
lowerback 7.50511 1.45315 -4.53141
upperback 1.11352 1.05549 -7.19797
thorax -3.01579 0.425435 -5.06643
lowerneck 3.53048 2.69379 -3.76195
upperneck 7.18572 3.19041 3.95834
head 1.52103 1.49822 1.89204
rclavicle -2.19657e-014 -2.8625e-014
rhumerus -29.8172 -1.33468 -92.4198
rradius 27.8181
rwrist 28.8715
rhand -14.0927 15.5836
rfingers 7.12502
rthumb 12.0397 -14.0501
lclavicle -2.19657e-014 -2.8625e-014
lhumerus -45.394 3.84947 83.1611
lradius 110.761
lwrist 10.82
lhand -18.6277 -12.526
lfingers 7.12502
lthumb 7.66452 17.3151
rfemur 14.9137 -1.06342 11.889
rtibia 36.3308
rfoot -18.3802 -1.33022
rtoes -9.8331
lfemur -30.8205 -13.5657 -24.1102
ltibia 43.2073
lfoot -20.2061 16.2036
ltoes -6.35777
224
root 14.8516 16.709 1.64548 68.6204 -96.1653 -71.2961
lowerback 7.752 1.42249 -4.28805
upperback 1.12417 1.02499 -7.0842
thorax -3.14146 0.412001 -5.08709
lowerneck 3.40884 2.69813 -3.74454
upperneck 7.0252 3.22322 3.70055
head 1.4929 1.51562 1.80483
rclavicle -8.94531e-015 1.22451e-013
rhumerus -29.5234 -1.97813 -91.9867
rradius 27.765
rwrist 29.1107
rhand -14.3175 15.408
rfingers 7.12502
rthumb 11.823 -14.2382
lclavicle -8.94531e-015 1.22451e-013
lhumerus -45.2259 4.06462 83.1705
lradius 110.812
lwrist 10.7016
lhand -18.7967 -12.4939
lfingers 7.12502
lthumb 7.50139 17.3531
rfemur 15.0819 -0.916987 12.2267
rtibia 35.5536
rfoot -19.7233 -1.19578
rtoes -10.6086
lfemur -31.3202 -13.8159 -23.6681
ltibia 43.1446
lfoot -20.3272 16.4208
ltoes -6.26911
225
root 14.9929 16.6905 1.62159 67.6599 -96.0101 -70.3298
lowerback 7.96831 1.38063 -4.01144
upperback 1.14654 0.989646 -6.95162
thorax -3.23777 0.396156 -5.1047
lowerneck 3.34372 2.71201 -3.69125
upperneck 6.83289 3.2672 3.43676
head 1.44521 1.53889 1.70812
rclavicle -9.14409e-015 1.90833e-014
rhumerus -29.2621 -2.52117 -91.6219
rradius 27.8027
rwrist 29.1581
rhand -14.5437 15.203
rfingers 7.12502
rthumb 11.6048 -14.4556
lclavicle -9.14409e-015 1.90833e-014
lhumerus -45.0643 4.25679 83.178
lradius 110.882
lwrist 10.5827
lhand -18.8738 -12.4781
lfingers 7.12502
lthumb 7.42693 17.3716
rfemur 15.2337 -0.782639 12.6453
rtibia 34.8061
rfoot -21.0254 -1.14929
rtoes -11.2964
lfemur -31.8267 -14.0645 -23.1571
ltibia 43.0837
lfoot -20.4291 16.6259
ltoes -6.04281
226
root 15.1352 16.6721 1.59737 66.6648 -95.8563 -69.3262
lowerback 8.1402 1.34649 -3.73302
upperback 1.19857 0.971755 -6.81907
thorax -3.27728 0.388658 -5.12314
lowerneck 3.29321 2.71171 -3.60878
upperneck 6.61417 3.29387 3.13319
head 1.38852 1.55391 1.59336
rclavicle -7.55382e-015 1.59028e-015
rhumerus -28.9574 -3.02151 -91.2807
rradius 27.8374
rwrist 29.1829
rhand -14.8536 15.08
rfingers 7.12502
rthumb 11.306 -14.5953
lclavicle -7.55382e-015 1.59028e-015
lhumerus -44.8507 4.38906 83.2345
lradius 110.89
lwrist 10.3927
lhand -19.0213 -12.4739
lfingers 7.12502
lthumb 7.28455 17.3807
rfemur 15.3586 -0.64051 13.0843
rtibia 34.0945
rfoot -22.2953 -1.20556
rtoes -11.6687
lfemur -32.3298 -14.3252 -22.6407
ltibia 43.0134
lfoot -20.5509 16.8578
ltoes -5.77243
227
root 15.2773 16.6544 1.57246 65.4617 -95.6541 -68.1208
lowerback 8.3091 1.31584 -3.39759
upperback 1.25159 0.965709 -6.6833
thorax -3.3124 0.386655 -5.1719
lowerneck 3.33276 2.70519 -3.47973
upperneck 6.32926 3.30953 2.83517
head 1.29678 1.56443 1.47028
rclavicle 1.43125e-014 4.77083e-014
rhumerus -28.6901 -3.43913 -91.0045
rradius 27.9488
rwrist 29.0431
rhand -15.1019 14.9514
rfingers 7.12502
rthumb 11.0665 -14.7369
lclavicle 1.43125e-014 4.77083e-014
lhumerus -44.6419 4.43257 83.2782
lradius 110.885
lwrist 10.2175
lhand -19.1069 -12.4354
lfingers 7.12502
lthumb 7.20198 17.422
rfemur 15.4639 -0.51937 13.5888
rtibia 33.4182
rfoot -23.4942 -1.32355
rtoes -11.9
lfemur -32.8209 -14.6268 -22.0547
ltibia 42.9363
lfoot -20.752 17.1021
ltoes -5.58831
228
root 15.4203 16.6381 1.54751 64.1915 -95.4102 -66.8692
lowerback 8.50734 1.28156 -3.02384
upperback 1.31662 0.958756 -6.53893
thorax -3.35089 0.383902 -5.23404
lowerneck 3.31023 2.68161 -3.30584
upperneck 6.09113 3.30485 2.50144
head 1.23267 1.5656 1.33093
rclavicle -4.27387e-015 -3.49861e-014
rhumerus -28.433 -3.80445 -90.7553
rradius 28.0976
rwrist 28.8546
rhand -15.3103 14.9132
rfingers 7.12502
rthumb 10.8655 -14.7857
lclavicle -4.27387e-015 -3.49861e-014
lhumerus -44.4242 4.35992 83.3006
lradius 110.856
lwrist 10.0981
lhand -19.1921 -12.407
lfingers 7.12502
lthumb 7.11972 17.4532
rfemur 15.5674 -0.387544 14.1708
rtibia 32.7833
rfoot -24.6835 -1.53529
rtoes -12.2113
lfemur -33.2814 -14.9387 -21.4256
ltibia 42.838
lfoot -20.9781 17.3402
ltoes -5.37666
